<?xml version="1.0" encoding="iso-8859-1"?>
<!-- Generator: Adobe Illustrator 19.0.0, SVG Export Plug-In . SVG Version: 6.00 Build 0)  -->
<svg version="1.1" id="Layer_1" xmlns="http://www.w3.org/2000/svg" xmlns:xlink="http://www.w3.org/1999/xlink" x="0px" y="0px"
	 viewBox="0 0 512.001 512.001" style="enable-background:new 0 0 512.001 512.001;" xml:space="preserve">
<g>
	<polygon style="fill:#CFF09E;" points="152.517,181.664 152.517,219.684 325.514,362.724 498.513,219.684 498.513,181.664 	"/>
	<polygon style="fill:#CFF09E;" points="152.517,181.664 263.435,181.664 359.485,102.247 359.485,64.228 13.487,64.228 
		13.487,102.247 152.517,217.202 	"/>
</g>
<path style="fill:#507C5C;" d="M507.107,230.077c3.099-2.561,4.893-6.373,4.893-10.395v-38.019c0-7.449-6.04-13.487-13.487-13.487
	H300.912l67.165-55.535c3.099-2.561,4.893-6.373,4.893-10.395V64.228c0-7.449-6.04-13.487-13.487-13.487H13.487
	C6.038,50.741,0,56.779,0,64.228v3.138v34.881v224.952v0.111v3.028c0,7.449,6.038,13.487,13.487,13.487H139.03v100.811v0.111v3.028
	c0,7.449,6.038,13.487,13.487,13.487h345.997c7.448,0,13.487-6.038,13.487-13.487v-3.138V301.593c0-7.449-6.04-13.487-13.487-13.487
	c-7.448,0-13.487,6.038-13.487,13.487v114.39l-101.378-83.823L507.107,230.077z M485.025,213.335l-159.51,131.889L166.004,213.335
	v-18.184h97.432h221.591v18.184H485.025z M26.975,130.899l101.378,83.823L26.975,298.546V130.899z M166.004,248.335l101.378,83.823
	l-101.378,83.823V248.335z M345.996,95.899l-87.415,72.278H152.515c-7.449,0-13.487,6.038-13.487,13.487v3.138v3.747L26.975,95.899
	V77.715h319.021V95.899z M47.169,316.849l91.859-75.954v75.954H47.169z M464.831,434.285H186.199l102.348-84.626l28.373,23.46
	c2.494,2.062,5.543,3.093,8.594,3.093s6.1-1.032,8.594-3.093l28.373-23.46L464.831,434.285z"/>
<g>
</g>
<g>
</g>
<g>
</g>
<g>
</g>
<g>
</g>
<g>
</g>
<g>
</g>
<g>
</g>
<g>
</g>
<g>
</g>
<g>
</g>
<g>
</g>
<g>
</g>
<g>
</g>
<g>
</g>
</svg>
