<svg id="Capa_1" enable-background="new 0 0 512 512" height="512" viewBox="0 0 512 512" width="512" xmlns="http://www.w3.org/2000/svg"><g><g><g><g><g><g><g><circle cx="256" cy="256" fill="#1dd882" r="256"/></g></g></g></g></g></g><path d="m511.003 278.746-85.567-85.567-74.971-20.571-28.524 41.783 45.696 45.696-.665 27.786-66.99-66.99-4.91 5.916-107.034-107.127-96.038 8.385-7.578 96.834 65.788 65.382-60.211 54.162 31.649 31.649-.774 1.52 134.396 134.396c.243 0 .487.001.731.001 133.718-.001 243.492-102.525 255.002-233.255z" fill="#06b26b"/><g><path d="m209.746 171.93c0-40.734-33.14-73.873-73.873-73.873s-73.873 33.139-73.873 73.873c0 35.596 25.307 65.392 58.873 72.342v70.163h-30.875v30h30.875v33.168h30v-33.168h30.875v-30h-30.875v-70.163c33.566-6.951 58.873-36.747 58.873-72.342zm-117.746 0c0-24.192 19.682-43.873 43.873-43.873s43.873 19.681 43.873 43.873c0 24.191-19.682 43.873-43.873 43.873s-43.873-19.682-43.873-43.873z" fill="#fff"/><path d="m209.746 171.93c0-40.734-33.14-73.873-73.873-73.873-.302 0-.6.019-.901.023v30c.301-.006.599-.023.901-.023 24.191 0 43.873 19.681 43.873 43.873 0 24.191-19.682 43.873-43.873 43.873-.302 0-.601-.017-.901-.023v161.823h15.901v-33.168h30.875v-30h-30.875v-70.163c33.566-6.951 58.873-36.747 58.873-72.342z" fill="#e9edf5"/></g><g><path d="m378.081 278.243v-89.993l26.142 26.141 21.213-21.213-62.354-62.354-62.354 62.354 21.213 21.213 26.141-26.14v89.992c-33.566 6.95-58.872 36.747-58.872 72.342 0 40.734 33.139 73.873 73.872 73.873s73.873-33.139 73.873-73.873c-.001-35.595-25.308-65.392-58.874-72.342zm-15 116.215c-24.191 0-43.872-19.681-43.872-43.873s19.681-43.873 43.872-43.873 43.873 19.681 43.873 43.873-19.682 43.873-43.873 43.873z" fill="#fff"/><path d="m436.954 350.585c0-35.596-25.307-65.392-58.873-72.342v-89.993l26.142 26.141 21.213-21.213-62.354-62.355.06 175.89c24.164.033 43.813 19.7 43.813 43.872s-19.649 43.839-43.813 43.872v30c40.705-.033 73.812-33.158 73.812-73.872z" fill="#e9edf5"/></g><g><path d="m212.019 220.883h87.963v30h-87.963z" fill="#ffce00"/></g><g><path d="m255.648 220.883h44.333v30h-44.333z" fill="#fdba12"/></g><g><path d="m212.019 265.748h87.963v30h-87.963z" fill="#ffce00"/></g><g><path d="m255.648 265.748h44.333v30h-44.333z" fill="#fdba12"/></g></g></svg>