<svg id="Layer_1" enable-background="new 0 0 512 512" height="512" viewBox="0 0 512 512" width="512" xmlns="http://www.w3.org/2000/svg"><g><g><g><g id="XMLID_232_"><g id="XMLID_233_"><g id="XMLID_234_"><g id="XMLID_235_"><g id="XMLID_236_"><g id="XMLID_237_"><g id="XMLID_238_"><g id="XMLID_245_"><g id="XMLID_246_"><g id="XMLID_247_"><g id="XMLID_248_"><g id="XMLID_249_"><g id="XMLID_250_"><g id="XMLID_251_"><g id="XMLID_252_"><circle cx="256" cy="256" fill="#14c4a2" r="256"/></g></g></g></g></g></g></g></g></g></g></g></g></g></g></g></g></g><path d="m512 256c0-31.19-5.585-61.074-15.798-88.715l-62.674-62.639-39.529-1.301-52.309-52.315-69.69 75.011-36.901-15.112-12.393-12.692s-15.787-2.741-18.193-.999l-10.863-10.903-12.544-4.179-17.049-17.124-18.19 24.279c-.523-.371-11.283-11.847-11.855-12.147l-22.346 106.675-52.062 3.844 63.827 63.813-1.797 35.963h-2.524c-8.083 0-20.092 15.272-17.4 17.923l7.502 7.218s-21.252 19.893-19.099 22.44l12.164 11.918-29.731 19.603 12.257 7.291 1.307 1.256c-3.033 2.626-4.295 18.044-4.295 18.044l111.651 111.142c20.016 5.024 40.961 7.706 62.534 7.706 141.385 0 256-114.615 256-256z" fill="#02a082"/><g><g><path d="m359.444 310.577c8.083 0 14.636 6.553 14.636 14.636v100.913c0 8.083-6.553 14.636-14.636 14.636-8.083 0-14.636-6.553-14.636-14.636v-100.913c.001-8.083 6.553-14.636 14.636-14.636z" fill="#b2540f"/><path d="m359.443 440.761h-.309c-7.908 0-14.323-6.415-14.323-14.329v-101.527c0-7.914 6.415-14.329 14.323-14.329h.309z" fill="#994405"/><path d="m330.173 328.447c8.083 0 14.636 6.553 14.636 14.636v62.158c0 8.083-6.553 14.636-14.636 14.636-8.083 0-14.636-6.553-14.636-14.636v-62.158c0-8.083 6.553-14.636 14.636-14.636z" fill="#b2540f"/><path d="m300.983 316.364c8.083 0 14.636 6.553 14.636 14.636v62.158c0 8.083-6.553 14.636-14.636 14.636-8.083 0-14.636-6.552-14.636-14.636v-62.158c0-8.083 6.553-14.636 14.636-14.636z" fill="#994405"/><path d="m403.351 413.207v-78.253c0-6.396 7.126-10.214 12.451-6.67l9.603 6.39c7.731 5.514 19.55 4.531 26.264-2.183 6.715-6.715 5.883-16.72-1.848-22.234l-30.804-21.97c-6.634-4.732-11.529-11.513-13.931-19.301l-7.594-24.62v-136.376h-96.439v139.783l-14.705 61.551v34.34h87.733v69.543c0 7.912 6.414 14.327 14.327 14.327h.618c7.911 0 14.325-6.414 14.325-14.327z" fill="#c16629"/><path d="m359.443 343.666h-73.097v-34.344l14.708-61.549v-139.784h58.389z" fill="#b2540f"/></g><g><path d="m319.776 143.255c0-8.083 6.553-14.636 14.636-14.636h100.912c8.083 0 14.636 6.553 14.636 14.636 0 8.083-6.553 14.636-14.636 14.636h-100.912c-8.083 0-14.636-6.553-14.636-14.636z" fill="#773600"/><path d="m449.96 143.257v.309c0 7.908-6.415 14.323-14.329 14.323h-101.527c-7.914 0-14.329-6.415-14.329-14.323v-.309z" fill="#5e2d00"/><path d="m337.646 172.527c0-8.083 6.553-14.636 14.636-14.636h62.158c8.083 0 14.636 6.552 14.636 14.636 0 8.083-6.553 14.636-14.636 14.636h-62.158c-8.084-.001-14.636-6.553-14.636-14.636z" fill="#773600"/><path d="m325.563 201.717c0-8.083 6.553-14.636 14.636-14.636h62.158c8.083 0 14.636 6.553 14.636 14.636 0 8.083-6.553 14.636-14.636 14.636h-62.158c-8.083-.001-14.636-6.553-14.636-14.636z" fill="#5e2d00"/><path d="m422.406 99.348h-78.253c-6.396 0-10.214-7.126-6.67-12.451l6.39-9.603c5.514-7.731 4.532-19.55-2.183-26.264-6.715-6.715-16.72-5.883-22.234 1.848l-21.97 30.804c-4.732 6.634-11.513 11.529-19.301 13.931l-24.621 7.594h-136.376v96.439h139.783l61.552 14.705h34.34v-87.731h69.543c7.913 0 14.327-6.414 14.327-14.327v-.618c0-7.912-6.414-14.327-14.327-14.327z" fill="#91410a"/><path d="m352.865 143.257v73.097h-34.344l-61.549-14.709h-139.784v-58.388z" fill="#773600"/></g><g><g><path d="m152.556 189.625c-8.083 0-14.636-6.553-14.636-14.636v-100.912c0-8.083 6.553-14.636 14.636-14.636 8.083 0 14.636 6.553 14.636 14.636v100.913c-.001 8.083-6.553 14.635-14.636 14.635z" fill="#ffd097"/><path d="m152.557 59.442h.309c7.908 0 14.323 6.415 14.323 14.329v101.527c0 7.914-6.415 14.329-14.323 14.329h-.309z" fill="#ffc473"/><path d="m181.827 171.755c-8.083 0-14.636-6.553-14.636-14.636v-62.157c0-8.083 6.553-14.636 14.636-14.636 8.083 0 14.636 6.553 14.636 14.636v62.158c0 8.083-6.553 14.635-14.636 14.635z" fill="#ffd097"/><path d="m211.017 183.838c-8.083 0-14.636-6.553-14.636-14.636v-62.158c0-8.083 6.553-14.636 14.636-14.636 8.083 0 14.636 6.553 14.636 14.636v62.158c0 8.084-6.553 14.636-14.636 14.636z" fill="#ffc473"/><path d="m108.649 86.995v78.253c0 6.396-7.126 10.214-12.451 6.67l-9.603-6.39c-7.731-5.514-19.55-4.532-26.264 2.183-6.715 6.715-5.883 16.72 1.848 22.234l30.804 21.97c6.634 4.732 11.53 11.514 13.931 19.3l7.594 24.621v136.376h96.439v-139.782l14.705-61.551v-34.34h-87.732v-69.544c0-7.912-6.414-14.327-14.327-14.327h-.618c-7.912.001-14.326 6.415-14.326 14.327z" fill="#ffdba9"/><path d="m152.557 156.536h73.097v34.344l-14.708 61.55v139.784h-58.389z" fill="#ffd097"/></g></g><g><path d="m194.564 353.43c0 8.083-6.553 14.636-14.636 14.636h-100.912c-8.083 0-14.636-6.553-14.636-14.636 0-8.083 6.552-14.636 14.636-14.636h100.912c8.084 0 14.636 6.553 14.636 14.636z" fill="#ef9543"/><path d="m64.381 353.428v-.309c0-7.908 6.415-14.323 14.329-14.323h101.527c7.914 0 14.329 6.415 14.329 14.323v.309z" fill="#e88623"/><path d="m176.694 324.158c0 8.083-6.553 14.636-14.636 14.636h-62.157c-8.083 0-14.636-6.553-14.636-14.636 0-8.083 6.553-14.636 14.636-14.636h62.158c8.083.001 14.635 6.553 14.635 14.636z" fill="#ef9543"/><path d="m188.778 294.968c0 8.083-6.553 14.636-14.636 14.636h-62.158c-8.083 0-14.636-6.553-14.636-14.636 0-8.083 6.553-14.636 14.636-14.636h62.158c8.083.001 14.636 6.553 14.636 14.636z" fill="#e88623"/><path d="m289.76 295.038-3.41 14.28v82.16h-25.57l-24.62 7.59c-7.79 2.41-14.57 7.3-19.31 13.93l-21.97 30.81c-3.01 4.22-7.36 6.39-11.78 6.39-3.68 0-7.4-1.5-10.45-4.54-6.71-6.72-7.7-18.54-2.18-26.27l6.39-9.6c3.54-5.33-.28-12.45-6.67-12.45h-78.26c-7.91 0-14.32-6.42-14.32-14.33v-.62c0-7.91 6.41-14.32 14.32-14.32h69.55v-87.74h34.34l61.55 14.71z" fill="#f4a360"/><path d="m289.76 295.038-3.41 14.28v44.11h-124.87v-73.1h34.34l61.55 14.71z" fill="#ef9543"/></g></g></g></svg>